<?xml version="1.0" encoding="utf-8"?>
<!-- Generator: Adobe Illustrator 16.0.0, SVG Export Plug-In . SVG Version: 6.00 Build 0)  -->
<!DOCTYPE svg PUBLIC "-//W3C//DTD SVG 1.1//EN" "http://www.w3.org/Graphics/SVG/1.1/DTD/svg11.dtd">
<svg 
	version="1.1" 
	id="Capa_1" 
	xmlns="http://www.w3.org/2000/svg" 
	xmlns:xlink="http://www.w3.org/1999/xlink" 
	x="0px" 
	y="0px"
	width="24px" 
	height="24px" 
	viewBox="0 0 24 24" 
	enable-background="new 0 0 24 24" 
	xml:space="preserve">

	<path 
		fill-rule="evenodd" 
		clip-rule="evenodd" 
		fill="#189D98" 
		d="M8.025,13.449c4.581-8.477,9.574-4.289,3.827,2.083
	c-0.625,0.693-4.021,3.866-5.06,2.823C5.92,17.475,7.475,14.467,8.025,13.449 M10.392,23.152c4.459,0.038,7.993-4.001,7.068-8.376
	c-0.177-0.84-0.891-1.164-1.281-0.198c-0.456,1.12,0.202,2.063-0.126,3.625c-0.773,3.682-5.601,5-8.443,2.894
	c-0.892-0.659-0.548-0.929,0.073-1.306c3.367-2.043,5.937-3.891,7.392-8.038c0.43-2.066-0.376-3.441-1.493-5.119
	c-0.774-1.165-2.294-3.527-3.067-4.862c-0.103-0.178-0.152-0.269-0.254-0.001c-0.704,1.836-2.139,3.65-3.395,5.462
	c-1.846,2.666-3.749,5.24-3.701,8.49C3.225,19.875,6.121,23.115,10.392,23.152z"/>
</svg>